#N canvas 103 233 818 553 12;
#X obj 342 195 tabwrite~ array1;
#N canvas 0 22 450 278 (subpatch) 0;
#X array array1 316416 float 2;
#X coords 0 1 316416 -1 200 140 1;
#X restore 301 258 graph;
#X obj 150 121 grainmaker~ array1;
#X obj 160 74 *~ 44100;
#X floatatom 245 73 5 0 0 0 - - -;
#X msg 28 82 grain_length 5;
#X floatatom 297 75 5 0 0 0 - - -;
#X floatatom 346 71 5 0 0 0 - - -;
#X obj 162 286 dac~;
#X obj 148 22 phasor~ 1;
#X obj 442 130 soundfiler;
#X msg 447 54 read -resize testloop.wav array1;
#X connect 2 0 8 0;
#X connect 2 0 8 1;
#X connect 3 0 2 0;
#X connect 4 0 2 1;
#X connect 5 0 2 0;
#X connect 6 0 2 2;
#X connect 7 0 2 3;
#X connect 9 0 3 0;
#X connect 11 0 10 0;
