#N canvas 88 91 818 552 12;
#N canvas 0 22 450 278 (subpatch) 0;
#X array array1 1.04858e+06 float 2;
#X coords 0 1 1.04858e+06 -1 200 140 1;
#X restore 466 135 graph;
#X obj 212 388 grainmaker~ array1;
#X floatatom 255 30 5 0 0 0 - - -;
#X floatatom 296 75 5 0 0 0 - - -;
#X floatatom 337 110 5 0 0 0 - - -;
#X obj 212 423 dac~;
#X obj 468 56 soundfiler;
#X floatatom 468 84 20 0 0 0 - - -;
#X obj 337 131 * 44100;
#X obj 255 51 * 44100;
#X obj 215 102 *~;
#X msg 468 28 read -resize sing.wav array1;
#X obj 107 30 hsl 128 15 0 1 0 0 empty empty empty -2 -8 0 10 -262144
-1 -1 9900 1;
#X floatatom 104 56 5 0 0 0 - - -;
#X msg 41 320 num_grains 10;
#X msg 42 288 grain_length 44100;
#X msg 42 348 offset 44100;
#X connect 1 0 5 0;
#X connect 1 0 5 1;
#X connect 2 0 9 0;
#X connect 3 0 1 2;
#X connect 4 0 8 0;
#X connect 6 0 7 0;
#X connect 7 0 10 1;
#X connect 8 0 1 3;
#X connect 9 0 1 1;
#X connect 10 0 1 0;
#X connect 11 0 6 0;
#X connect 12 0 13 0;
#X connect 13 0 10 0;
#X connect 14 0 1 0;
#X connect 15 0 1 0;
#X connect 16 0 1 0;
