#N canvas 564 239 718 472 12;
#X obj 162 290 grainmaker, f 15;
#X obj 152 250 bng 15 250 50 0 empty empty empty 17 7 0 10 -262144
-1 -1;
#N canvas 0 22 450 278 (subpatch) 0;
#X array sample 30178 float 4;
#X coords 0 1 30177 -1 200 140 1 0 0;
#X restore 314 43 graph;
#X obj 87 70 soundfiler;
#X msg 87 41 read -resize test.wav sample;
#X obj 256 238 tabread sample;
#X connect 1 0 0 0;
#X connect 1 0 5 0;
#X connect 4 0 3 0;
#X connect 5 0 0 1;
